<svg xmlns="http://www.w3.org/2000/svg" viewBox="0 0 560 460" role="img" aria-labelledby="title desc">
<title id="title">Abruzzo: partenze da Sulmona e Pescara</title>
<desc id="desc">Confine regionale, province, costa adriatica e regioni confinanti. Sulmona si trova nell’entroterra, Pescara sulla costa. I punti indicano i centri urbani, non le sedi.</desc>
<metadata>Confini ISTAT 2026, geojson-italy, CC BY 4.0. https://github.com/guglielmo/geojson-italy. Web Mercator, RDP 0.18 px. Coordinate GeoNames, CC BY 4.0: Sulmona 42.04945,13.92578; Pescara 42.45840,14.20283. Sorgenti e SHA-256 documentati in assets/SOURCES.md.</metadata>
<style>text{font-family:Arial,sans-serif}</style>
<defs><path id="region-boundary" d="M266.9,398.3L265.1,396.9L263.9,393.9L263.2,393.0L262.2,389.8L260.7,389.4L259.1,389.7L257.6,385.7L256.3,384.8L255.6,385.7L253.7,386.7L248.8,385.9L247.9,385.2L247.8,384.7L246.3,384.0L242.9,383.7L241.8,383.2L240.1,380.0L239.3,379.4L234.6,382.6L232.4,381.5L229.7,380.9L228.6,380.1L227.5,378.4L225.9,377.4L225.9,374.1L224.4,371.8L222.1,370.0L221.6,368.6L221.7,366.6L221.3,366.9L219.0,366.9L217.0,369.8L216.6,369.9L213.8,368.7L211.4,365.0L209.9,364.2L207.1,363.0L204.5,363.1L202.1,365.2L202.0,365.5L202.7,366.3L203.2,368.5L200.7,371.2L199.3,372.1L196.9,372.6L196.0,373.8L194.4,375.0L191.1,375.9L189.0,379.1L188.0,379.4L185.8,377.3L184.5,377.0L183.6,377.3L182.4,377.0L179.9,375.4L177.1,374.0L177.3,372.0L175.1,369.5L174.6,367.0L173.8,365.8L169.0,365.3L166.2,364.4L165.1,363.6L162.8,360.0L158.4,358.3L155.0,356.3L152.8,355.5L150.6,356.5L149.4,360.7L148.6,361.3L147.0,361.3L145.8,359.0L144.3,356.8L144.6,354.6L144.1,349.7L144.4,348.1L142.6,346.4L143.8,344.0L145.7,341.7L147.7,337.4L146.7,334.2L144.1,331.4L143.9,330.7L142.1,330.2L141.7,331.0L140.9,331.5L139.7,331.2L138.3,330.3L137.3,327.9L135.1,325.1L131.8,322.4L130.5,322.0L129.6,322.0L129.2,323.7L127.3,323.3L123.5,319.8L122.6,318.4L121.7,318.0L119.8,317.7L117.6,317.0L116.0,315.5L115.5,314.6L114.3,313.6L111.7,312.5L109.1,312.9L108.5,312.8L105.4,310.9L102.2,309.5L97.3,305.5L95.4,304.4L90.8,302.9L88.4,301.4L87.0,301.4L86.6,302.6L86.5,303.3L87.5,305.7L87.5,306.6L82.6,306.2L77.6,304.2L76.5,302.1L75.9,298.7L71.6,294.5L71.8,292.8L71.5,290.8L70.6,289.6L70.0,287.6L70.1,286.2L71.5,280.6L72.8,278.5L72.9,276.2L72.5,275.7L72.5,273.8L74.3,275.1L78.2,273.6L81.6,271.0L82.4,268.9L84.3,267.5L84.5,265.8L85.9,262.7L85.9,261.0L84.5,259.1L84.5,257.7L89.3,258.3L91.5,258.1L101.5,264.4L102.2,265.5L104.0,264.8L105.1,263.2L107.7,263.5L108.5,264.9L109.9,266.2L111.3,267.0L113.6,267.7L116.3,270.8L116.6,271.8L119.1,272.3L123.5,269.3L125.3,269.4L126.8,270.3L131.1,269.1L132.1,266.6L133.7,264.7L134.1,264.6L134.7,265.0L136.0,264.4L135.6,263.4L134.9,262.6L135.8,261.8L137.1,261.1L139.6,261.5L141.5,260.9L141.7,260.8L139.0,258.0L140.1,258.3L142.8,257.8L144.4,257.1L147.1,257.0L145.9,255.1L143.0,254.0L141.1,253.8L138.9,251.8L136.8,249.0L137.1,248.2L138.3,246.9L137.6,244.9L135.8,244.5L135.0,243.3L134.3,242.8L130.0,242.5L128.4,242.0L126.3,240.7L125.0,239.3L124.6,238.8L123.6,235.5L120.7,232.7L117.9,231.2L117.7,231.5L116.0,228.9L114.8,225.8L114.3,216.9L113.1,216.9L108.2,213.5L107.6,213.5L106.8,213.2L105.5,212.0L105.2,211.3L102.6,208.4L99.9,207.0L98.7,206.0L102.1,202.3L106.4,199.1L107.4,196.7L106.5,194.7L106.3,193.6L103.6,191.8L102.0,191.4L99.1,189.5L96.5,185.5L95.6,184.6L93.8,182.8L90.8,180.9L95.8,175.5L98.6,175.4L98.8,175.6L104.0,170.7L102.7,169.7L102.5,169.0L103.9,161.0L101.6,160.2L99.6,156.4L99.2,153.1L101.5,153.0L103.0,151.5L103.5,149.4L103.2,145.1L107.0,142.1L106.8,139.3L112.7,140.8L115.2,141.9L116.3,143.0L118.5,143.6L120.0,141.2L122.1,140.6L125.6,140.6L126.7,141.0L128.1,144.2L128.6,144.5L130.1,143.8L132.5,143.2L134.6,141.9L137.8,142.2L139.5,142.7L145.8,141.3L147.5,141.2L148.0,139.8L150.1,138.2L149.4,137.6L149.0,135.0L149.3,133.2L149.8,132.6L150.4,130.5L150.2,129.4L152.5,127.5L153.3,125.2L153.4,124.0L153.1,123.3L151.9,122.8L147.6,121.3L145.5,121.4L143.6,119.5L141.9,116.8L140.4,115.8L140.9,111.8L142.6,107.9L143.7,108.7L145.0,108.6L147.1,109.2L149.2,110.4L150.9,109.9L153.1,107.8L157.2,104.8L158.1,105.7L158.6,106.6L159.3,107.0L160.0,106.1L160.0,105.3L159.5,104.4L159.5,101.6L160.1,99.3L161.5,97.4L162.5,96.8L164.7,96.6L168.9,97.3L171.3,96.0L172.3,94.6L173.6,92.0L173.2,88.3L173.2,86.0L173.6,84.9L174.2,84.5L176.3,80.7L176.8,80.1L179.0,78.8L180.1,72.8L182.0,72.7L182.4,73.0L184.5,76.3L188.6,77.4L191.7,75.5L193.0,75.8L194.1,75.8L196.9,74.6L198.5,73.0L199.3,72.8L200.1,73.2L199.9,74.0L200.2,75.6L201.6,76.6L202.9,76.7L207.6,75.5L208.2,74.6L210.4,73.2L215.3,71.0L215.7,69.5L217.7,65.0L216.7,64.3L216.8,63.2L221.1,61.4L224.3,61.3L227.6,60.5L231.2,60.3L236.9,58.0L239.3,56.4L239.5,55.7L240.2,55.0L241.5,54.4L245.1,53.4L248.8,53.0L252.6,51.7L253.9,50.9L256.1,50.9L260.0,50.0L261.6,50.1L262.6,50.7L262.6,52.8L264.6,64.8L267.2,75.0L270.8,85.4L274.4,93.1L277.9,102.8L280.0,107.1L285.0,116.0L287.9,120.1L292.8,130.7L296.5,136.7L299.5,141.0L302.8,146.4L307.3,152.2L310.7,155.8L311.5,157.5L312.3,157.2L319.0,166.3L323.9,171.3L326.2,173.2L327.3,173.8L328.4,173.7L328.2,173.9L328.3,174.4L330.3,177.1L335.1,181.9L346.8,191.4L359.1,199.8L360.7,200.3L362.9,201.5L363.5,202.0L363.9,203.2L364.7,204.2L367.3,205.9L369.3,206.5L369.9,207.7L367.3,206.0L367.0,206.6L367.0,208.7L367.4,209.4L367.9,209.2L370.0,213.4L370.4,215.0L373.6,219.0L376.7,221.8L382.9,226.7L386.1,230.1L386.7,231.7L386.5,233.9L388.3,236.5L392.7,239.6L395.2,240.8L396.9,242.5L399.7,244.5L412.0,251.6L416.7,253.5L417.6,253.7L428.0,258.4L430.8,258.9L431.4,257.9L431.6,258.0L432.6,259.9L433.0,263.2L433.0,264.9L432.6,266.0L432.9,269.8L433.7,271.7L433.7,273.1L432.8,277.3L432.8,278.5L434.7,281.1L438.3,284.6L439.9,285.7L445.8,288.7L444.4,290.7L442.2,296.1L442.5,296.9L444.8,297.6L446.6,299.2L445.7,300.9L443.0,303.6L440.0,305.0L438.6,306.6L435.4,307.4L434.1,308.8L429.5,315.0L429.0,316.3L426.8,318.3L424.3,322.0L422.2,324.2L421.5,325.8L421.9,328.2L421.2,332.9L419.3,334.5L418.7,335.6L416.4,337.5L412.4,339.3L410.6,340.7L410.0,343.3L407.3,348.2L407.1,351.6L405.4,352.9L404.3,354.2L402.6,358.4L400.7,361.1L399.9,360.7L399.2,360.7L396.8,361.9L395.4,363.8L394.5,365.6L393.3,366.3L392.8,366.1L393.2,366.8L393.4,368.5L392.6,369.6L385.9,374.2L385.3,375.8L384.0,377.4L383.1,377.8L379.9,376.8L377.2,377.1L376.5,376.8L376.5,376.3L377.3,374.3L378.6,372.8L376.5,367.5L375.6,360.1L374.6,355.4L373.9,354.4L372.0,354.4L369.3,350.4L364.3,346.3L363.5,346.1L362.3,347.0L360.3,347.4L359.7,344.8L359.9,343.4L357.6,344.1L356.6,344.9L357.2,345.8L357.3,346.5L356.0,348.9L352.7,348.4L352.7,346.6L349.4,341.7L348.6,338.7L346.2,339.6L344.4,339.5L343.6,337.9L341.6,336.8L340.2,335.0L340.1,334.5L338.7,335.2L336.2,338.8L335.2,339.5L334.0,339.8L331.7,342.8L330.2,343.7L328.5,344.2L327.8,344.8L327.3,345.7L327.6,345.9L327.1,347.9L326.1,349.8L325.0,350.8L321.4,352.4L321.1,353.0L321.6,354.0L321.1,354.4L319.9,354.3L319.4,353.8L317.5,353.3L314.9,354.1L314.4,354.8L313.8,354.9L312.7,355.6L310.9,358.4L311.5,359.4L312.4,361.6L313.3,361.8L314.6,364.2L316.1,372.4L317.2,373.8L319.5,373.6L320.8,373.9L322.4,375.6L322.4,376.6L321.0,378.3L320.9,380.8L320.1,381.1L317.6,380.8L316.9,379.6L316.9,376.5L316.6,376.1L316.1,376.1L314.4,377.9L313.8,379.3L314.1,380.5L313.5,381.2L309.1,382.0L307.2,382.2L305.2,382.0L304.1,384.7L305.3,385.6L305.8,387.4L304.4,390.6L303.0,392.4L302.3,392.8L301.9,390.1L299.8,385.6L299.6,384.0L298.0,383.7L296.0,384.2L294.3,384.2L293.6,385.9L290.8,389.4L290.8,394.4L288.4,394.5L286.3,394.3L284.6,395.7L284.4,397.3L283.4,400.0L278.4,396.8L275.8,396.4L270.0,396.2L268.4,396.8L267.3,398.1L266.9,398.3Z"/><clipPath id="region-clip"><use href="#region-boundary"/></clipPath></defs>
<rect width="560" height="460" fill="#e5f0f2"/>
<g fill="#edf0eb" stroke="#b7c6c2" stroke-width="1" stroke-linejoin="round" fill-rule="evenodd">
<path d="M247.4,0.0L250.5,15.4L254.1,29.8L255.0,31.1L255.6,32.9L255.7,34.4L256.6,37.6L258.3,41.5L260.6,48.1L261.6,50.1L259.6,50.0L256.1,50.9L253.9,50.9L252.6,51.7L248.8,53.0L245.1,53.4L241.5,54.4L240.2,55.0L239.5,55.7L239.3,56.4L237.6,57.6L232.0,60.0L230.5,60.4L227.1,60.5L224.3,61.3L221.1,61.4L216.8,63.2L216.7,64.3L217.7,65.0L215.7,69.5L215.3,71.0L210.4,73.2L208.2,74.6L207.6,75.5L202.9,76.7L201.6,76.6L200.2,75.6L199.9,74.0L200.1,73.2L199.3,72.8L198.5,73.0L196.9,74.6L194.1,75.8L193.0,75.8L191.7,75.5L188.6,77.4L184.5,76.3L182.4,73.0L182.0,72.7L180.1,72.8L179.0,78.8L176.8,80.1L176.3,80.7L174.2,84.5L173.6,84.9L173.2,86.0L173.2,88.3L173.6,92.0L172.3,94.6L171.3,96.0L168.9,97.3L164.7,96.6L162.5,96.8L161.5,97.4L160.1,99.3L159.5,101.6L159.5,104.4L160.0,105.3L160.0,106.1L159.4,106.9L158.6,106.6L158.1,105.7L157.2,104.8L153.1,107.8L150.9,109.9L149.2,110.4L147.1,109.2L145.0,108.6L143.7,108.7L142.6,107.9L142.3,108.4L139.0,106.2L136.7,103.9L133.9,99.9L132.0,98.6L128.8,97.8L127.9,96.9L127.4,95.5L126.6,95.1L125.6,94.8L122.4,95.0L121.7,96.8L121.4,98.7L120.2,100.4L119.5,99.9L117.0,99.1L110.2,97.7L107.7,96.7L106.0,96.9L106.3,95.5L108.5,92.5L108.4,90.9L107.2,89.6L107.6,88.7L108.6,88.3L110.5,88.1L112.2,85.9L113.3,85.5L115.0,85.6L116.5,86.5L116.9,89.0L117.5,88.4L118.4,87.0L118.4,86.0L119.5,80.7L121.3,77.9L122.3,75.2L122.0,73.0L120.9,72.0L120.5,71.0L119.2,66.2L118.9,63.4L117.7,60.2L116.2,57.9L115.5,61.2L112.7,64.2L111.0,65.5L109.9,65.9L109.4,65.8L106.1,67.5L104.7,66.8L100.8,68.2L98.9,67.3L95.9,61.6L91.9,56.1L89.9,51.6L83.3,48.6L80.4,46.4L77.6,42.8L77.1,42.8L75.2,44.1L73.8,46.3L71.3,47.7L68.5,47.7L67.1,46.1L66.2,45.8L65.3,47.5L66.0,51.2L64.5,54.5L63.9,56.6L62.9,57.5L60.9,57.3L60.3,55.1L60.6,52.4L60.4,51.4L59.8,50.8L59.3,47.4L61.0,40.9L59.4,40.2L55.1,39.7L55.4,38.3L54.9,36.4L53.5,36.2L52.4,35.4L50.4,32.7L49.1,32.4L48.3,32.6L47.5,32.3L43.7,29.6L44.3,27.0L45.9,25.2L46.4,23.6L43.3,18.8L42.0,16.2L44.1,12.1L44.7,12.5L45.4,12.1L46.0,8.9L44.5,6.9L43.3,6.1L42.9,5.4L42.5,2.1L43.0,0.0Z"/>
<path d="M99.8,120.0L98.9,120.9L97.2,122.1L95.8,121.0L93.9,118.8L92.9,118.7L91.2,119.0L90.8,119.3L90.9,120.2L89.2,123.5L87.0,125.1L84.7,125.7L82.7,126.6L81.2,128.0L79.2,129.0L78.2,129.0L74.0,127.8L72.9,126.1L72.5,124.8L71.8,124.4L71.1,124.4L69.0,127.1L68.8,128.0L69.2,129.6L68.3,130.7L66.9,131.3L65.7,131.3L62.9,131.2L58.0,130.3L55.8,130.2L52.6,131.2L51.8,133.6L51.0,134.9L48.6,134.1L48.0,132.9L45.4,132.1L43.8,130.9L42.4,131.8L40.4,133.0L40.4,135.0L41.6,138.8L43.4,142.2L43.0,146.3L42.2,146.2L38.6,147.0L35.6,148.4L32.6,150.5L29.8,153.1L27.8,154.1L27.1,155.1L25.1,154.3L22.3,154.9L19.8,154.9L19.8,155.2L17.5,155.6L17.0,157.4L17.6,158.9L17.6,160.9L12.8,161.5L11.7,162.4L11.5,162.1L7.8,162.0L6.3,163.5L4.3,164.5L5.5,167.6L6.3,168.9L9.0,171.1L10.8,173.2L8.5,174.6L7.2,176.1L5.1,176.3L4.2,175.2L2.5,176.0L1.6,177.8L0.0,179.3L0.0,0.0L43.0,0.0L42.5,2.1L42.9,5.4L43.3,6.1L44.5,6.9L46.0,8.9L45.4,12.1L44.7,12.5L44.1,12.1L42.0,16.2L43.3,18.8L46.4,23.6L45.9,25.2L44.3,27.0L43.7,29.6L47.5,32.3L48.3,32.6L49.1,32.4L50.4,32.7L52.4,35.4L53.5,36.2L54.9,36.4L55.4,38.3L55.1,39.7L59.4,40.2L61.0,40.9L59.3,47.4L59.8,50.8L60.4,51.4L60.6,52.4L60.3,55.1L60.9,57.3L62.9,57.5L63.9,56.6L64.5,54.5L66.0,51.2L65.3,47.5L66.2,45.8L67.1,46.1L68.5,47.7L71.3,47.7L73.8,46.3L75.2,44.1L77.1,42.8L77.6,42.8L80.4,46.4L83.3,48.6L89.9,51.6L91.9,56.1L95.9,61.6L98.9,67.3L100.8,68.2L104.7,66.8L106.1,67.5L109.4,65.8L109.9,65.9L111.0,65.5L112.7,64.2L115.5,61.2L116.2,57.9L116.4,58.1L117.7,60.2L118.9,63.4L119.2,66.2L120.5,71.0L120.9,72.0L122.0,73.0L122.3,75.2L121.3,77.9L119.5,80.7L118.4,86.0L118.4,87.0L117.3,88.6L116.9,89.0L116.5,86.5L115.0,85.6L113.3,85.5L112.2,85.9L110.5,88.1L108.6,88.3L107.6,88.7L107.2,89.4L108.4,90.9L108.6,91.9L108.4,92.7L106.4,95.4L106.0,96.3L106.0,96.9L106.3,96.9L106.3,101.4L106.6,103.8L103.8,108.3L103.0,110.4L103.5,111.6L104.3,111.5L103.1,116.5L99.8,120.0Z"/>
<path d="M-0.0,460.0L0.0,179.3L1.6,177.8L2.5,176.0L4.2,175.2L5.1,176.3L7.2,176.1L8.5,174.6L10.8,173.2L9.0,171.1L6.3,168.9L5.5,167.6L4.3,164.5L6.3,163.5L7.8,162.0L11.5,162.1L11.7,162.4L12.8,161.5L17.6,160.9L17.6,158.9L17.0,157.4L17.5,155.6L19.8,155.2L19.8,154.9L22.3,154.9L25.1,154.3L27.1,155.1L27.8,154.1L29.8,153.1L32.6,150.5L35.6,148.4L38.6,147.0L42.2,146.2L43.0,146.3L43.4,142.2L41.8,139.3L40.7,136.2L40.4,135.0L40.4,133.0L43.8,130.9L45.4,132.1L48.0,132.9L48.6,134.1L51.0,134.9L51.8,133.6L52.6,131.2L55.8,130.2L58.0,130.3L62.9,131.2L65.7,131.3L66.9,131.3L68.3,130.7L69.2,129.6L68.8,128.0L69.0,127.1L71.1,124.4L71.8,124.4L72.5,124.8L72.9,126.1L74.0,127.8L78.5,129.1L79.7,128.9L82.7,126.6L84.7,125.7L87.0,125.1L89.2,123.5L90.9,120.2L90.8,119.3L91.2,119.0L92.9,118.7L93.9,118.8L95.8,121.0L97.2,122.1L98.9,120.9L103.1,116.5L104.3,111.5L103.5,111.6L103.0,110.4L103.8,108.3L106.7,103.6L106.3,101.4L106.3,96.9L107.7,96.7L110.2,97.7L117.0,99.1L119.5,99.9L120.2,100.4L121.4,98.7L121.7,96.8L122.4,95.0L125.6,94.8L127.4,95.5L127.9,96.9L128.8,97.8L132.0,98.6L133.9,99.9L136.7,103.9L139.0,106.2L142.3,108.4L140.9,111.8L140.4,115.8L141.9,116.8L142.9,118.5L144.6,120.7L145.5,121.4L147.6,121.3L153.1,123.3L153.3,125.2L152.5,127.5L150.2,129.4L150.4,130.5L149.8,132.6L149.3,133.2L149.0,135.0L149.4,137.6L150.1,138.2L148.0,139.8L147.5,141.2L145.8,141.3L139.5,142.7L137.8,142.2L134.6,141.9L132.5,143.2L130.1,143.8L128.6,144.5L128.1,144.2L126.7,141.0L125.6,140.6L122.1,140.6L120.0,141.2L118.5,143.6L116.3,143.0L115.2,141.9L112.7,140.8L106.8,139.3L107.0,142.1L103.2,145.1L103.5,149.4L103.0,151.5L101.5,153.0L99.2,153.1L99.6,156.4L101.6,160.2L103.9,161.0L102.5,169.0L102.7,169.7L104.0,170.7L98.8,175.6L98.6,175.4L95.8,175.5L90.8,180.9L93.8,182.8L95.6,184.6L96.5,185.5L99.1,189.5L102.0,191.4L103.6,191.8L106.3,193.6L106.5,194.7L107.4,196.7L106.4,199.1L102.1,202.3L98.7,206.0L99.9,207.0L102.6,208.4L105.2,211.3L105.5,212.0L106.8,213.2L107.6,213.5L108.2,213.5L113.1,216.9L114.3,216.9L114.8,225.8L116.0,228.9L117.7,231.5L117.9,231.2L120.7,232.7L123.6,235.5L124.6,238.8L125.0,239.3L126.3,240.7L128.4,242.0L130.0,242.5L134.3,242.8L135.0,243.3L135.8,244.5L137.6,244.9L138.3,246.9L137.1,248.2L136.8,249.0L138.9,251.8L141.1,253.8L143.0,254.0L145.9,255.1L147.1,257.0L144.4,257.1L142.8,257.8L140.1,258.3L139.0,258.0L141.7,260.8L141.5,260.9L139.6,261.5L137.1,261.1L135.8,261.8L134.9,262.6L135.6,263.4L136.0,264.4L134.7,265.0L134.1,264.6L133.7,264.7L132.1,266.6L131.1,269.1L126.8,270.3L125.3,269.4L123.5,269.3L119.1,272.3L116.6,271.8L116.3,270.8L113.6,267.7L111.3,267.0L109.9,266.2L108.5,264.9L107.7,263.5L105.1,263.2L104.0,264.8L102.2,265.5L101.5,264.4L91.5,258.1L89.3,258.3L84.5,257.7L84.5,259.1L85.9,261.0L85.9,262.7L84.5,265.8L84.3,267.5L82.4,268.9L81.6,271.0L78.2,273.6L74.3,275.1L72.5,273.8L72.5,275.7L72.9,276.2L72.8,278.5L71.5,280.6L70.1,286.2L70.0,287.6L70.6,289.6L71.5,290.8L71.8,292.8L71.6,294.5L75.9,298.7L76.5,302.1L77.6,304.2L82.6,306.2L87.5,306.6L87.5,305.7L86.5,303.3L86.6,302.6L87.0,301.4L88.4,301.4L90.8,302.9L95.4,304.4L97.3,305.5L102.2,309.5L105.4,310.9L108.5,312.8L109.1,312.9L111.7,312.5L114.3,313.6L115.5,314.6L116.0,315.5L117.6,317.0L119.8,317.7L121.7,318.0L122.6,318.4L123.5,319.8L127.3,323.3L129.2,323.7L129.6,322.0L130.5,322.0L131.8,322.4L135.1,325.1L137.3,327.9L138.3,330.3L139.7,331.2L140.9,331.5L141.7,331.0L142.1,330.2L143.7,330.5L144.1,331.4L146.7,334.2L147.7,337.4L145.7,341.7L143.8,344.0L142.6,346.4L144.4,348.1L144.1,349.7L144.6,354.6L144.3,356.8L147.2,361.4L148.6,361.3L149.5,360.6L150.6,356.5L152.8,355.5L155.0,356.3L158.4,358.3L162.8,360.0L165.1,363.6L166.2,364.4L169.0,365.3L173.8,365.8L174.6,367.0L175.1,369.5L177.3,372.0L177.1,374.0L179.9,375.4L182.4,377.0L183.6,377.3L184.5,377.0L185.8,377.3L188.0,379.4L189.0,379.1L191.1,375.9L194.4,375.0L196.0,373.8L196.9,372.6L199.3,372.1L200.7,371.2L203.2,368.5L202.7,366.3L202.0,365.5L202.3,365.0L204.5,363.1L207.1,363.0L211.4,365.0L213.8,368.7L216.6,369.9L217.0,369.8L219.0,366.9L221.3,366.9L221.7,366.6L221.6,368.6L222.1,370.0L224.4,371.8L225.9,374.1L225.9,377.4L227.5,378.4L228.6,380.1L229.7,380.9L232.4,381.5L234.6,382.6L239.3,379.4L240.1,380.0L241.8,383.2L242.9,383.7L246.3,384.0L247.8,384.7L247.9,385.2L248.8,385.9L253.7,386.7L255.6,385.7L256.3,384.8L257.6,385.7L259.1,389.7L260.7,389.4L262.2,389.8L263.2,393.0L263.9,393.9L265.1,396.9L268.6,400.2L269.8,400.6L272.6,402.6L274.3,405.0L276.6,407.3L277.0,408.1L276.8,409.8L277.1,410.7L278.1,412.1L278.7,416.6L281.8,421.2L281.3,423.4L281.6,425.6L279.0,429.3L279.2,430.6L280.3,431.5L279.8,432.2L280.3,433.0L281.8,433.3L284.5,434.7L285.0,436.2L283.9,439.9L280.6,440.9L281.5,442.3L284.9,444.6L285.3,445.3L285.1,445.5L283.6,445.8L281.7,447.8L278.4,448.3L274.2,452.9L273.7,453.7L273.7,454.1L277.9,457.1L277.1,457.8L275.8,460.0Z"/>
<path d="M299.5,460.0L301.5,456.6L303.3,455.1L305.0,450.1L306.2,449.9L308.7,453.4L311.8,456.9L313.6,457.8L314.7,458.0L315.2,453.6L316.3,452.2L316.8,452.1L317.4,452.8L320.2,453.0L321.1,452.4L323.2,452.0L325.6,452.9L328.7,452.5L330.8,452.8L332.2,456.0L332.7,456.4L335.2,456.5L339.0,455.9L341.8,458.7L341.2,459.6L340.2,460.0L489.6,460.0L489.6,459.3L490.7,457.7L493.2,456.3L494.6,455.9L497.9,458.4L498.6,460.0Z"/>
<path d="M340.2,460.0L341.2,459.6L341.8,458.7L339.0,455.9L335.2,456.5L332.7,456.4L332.2,456.0L330.8,452.8L328.7,452.5L325.6,452.9L323.2,452.0L321.1,452.4L320.2,453.0L317.4,452.8L316.8,452.1L316.3,452.2L315.2,453.6L314.7,458.0L313.6,457.8L311.8,456.9L308.7,453.4L306.2,449.9L305.0,450.1L303.3,455.1L301.5,456.6L299.5,460.0L275.8,460.0L277.1,457.8L277.9,457.1L273.8,454.2L273.7,453.7L278.3,448.3L281.7,447.8L283.6,445.8L285.3,445.4L284.9,444.6L281.5,442.3L280.6,440.9L283.9,439.9L285.0,436.1L284.5,434.7L281.8,433.3L280.3,433.0L279.8,432.2L280.3,431.5L279.2,430.7L279.0,429.3L281.6,425.6L281.3,423.4L281.8,421.2L278.7,416.6L278.1,412.1L277.1,410.7L276.8,409.8L276.8,407.6L274.3,405.0L272.6,402.6L269.8,400.6L268.6,400.2L267.6,399.5L266.9,398.3L267.3,398.1L268.4,396.8L270.0,396.2L275.8,396.4L278.4,396.8L283.4,400.0L284.4,397.3L284.6,395.7L286.3,394.3L288.4,394.5L290.8,394.4L290.8,389.4L293.6,385.9L294.3,384.2L296.0,384.2L298.0,383.7L299.6,384.0L299.8,385.6L301.9,390.1L302.3,392.8L303.0,392.4L304.4,390.6L305.8,387.4L305.3,385.6L304.1,384.7L305.2,382.0L307.2,382.2L309.1,382.0L313.5,381.2L314.1,380.5L313.8,379.3L314.4,377.9L316.1,376.1L316.6,376.1L316.9,376.5L316.9,379.6L317.6,380.8L320.1,381.1L320.9,380.8L321.0,378.3L322.4,376.6L322.4,375.6L320.8,373.9L319.5,373.6L317.2,373.8L316.1,372.4L314.6,364.2L313.3,361.8L312.4,361.6L311.5,359.4L310.9,358.4L312.7,355.6L313.8,354.9L314.4,354.8L314.9,354.1L317.5,353.3L319.4,353.8L319.9,354.3L321.1,354.4L321.6,354.0L321.1,353.0L321.4,352.4L325.0,350.8L326.1,349.8L327.1,347.9L327.6,345.9L327.3,345.7L327.8,344.8L328.5,344.2L330.2,343.7L331.7,342.8L334.0,339.8L335.2,339.5L336.2,338.8L338.7,335.2L340.1,334.5L340.2,335.0L341.6,336.8L343.6,337.9L344.4,339.5L346.2,339.6L348.6,338.7L349.4,341.7L352.7,346.6L352.7,348.4L356.0,348.9L357.3,346.5L357.2,345.8L356.6,344.9L357.6,344.1L359.9,343.4L359.7,344.8L360.3,347.4L362.3,347.0L363.5,346.1L364.3,346.3L369.3,350.4L372.0,354.4L373.9,354.4L374.6,355.4L375.6,360.1L376.5,367.5L378.6,372.8L377.3,374.3L376.5,376.3L376.5,376.8L377.2,377.1L379.9,376.8L383.1,377.8L384.0,377.4L385.3,375.8L385.9,374.2L392.6,369.6L393.4,368.5L393.2,366.8L392.8,366.1L393.3,366.3L394.5,365.6L395.4,363.8L396.8,361.9L399.2,360.7L399.9,360.7L400.7,361.1L402.6,358.4L404.3,354.2L405.4,352.9L407.1,351.6L407.3,348.2L410.0,343.3L410.6,340.7L412.4,339.3L416.4,337.5L418.7,335.6L419.3,334.5L421.2,332.9L421.9,328.2L421.5,325.8L422.2,324.2L424.3,322.0L426.8,318.3L429.0,316.3L429.5,315.0L434.1,308.8L435.4,307.4L438.6,306.6L440.0,305.0L443.0,303.6L446.1,300.3L446.6,299.4L446.5,298.8L444.8,297.6L442.5,296.9L442.2,296.1L444.4,290.7L445.8,288.7L449.0,290.0L451.3,292.2L456.2,295.4L470.0,302.1L473.3,303.3L483.3,305.9L491.7,307.4L494.0,307.0L494.8,308.1L494.6,308.2L494.0,307.2L492.8,307.4L493.1,310.0L493.7,311.2L495.9,312.8L497.7,313.5L498.8,314.3L498.8,315.1L499.4,315.1L499.9,315.6L502.2,317.9L504.4,319.3L509.9,325.5L514.2,327.6L517.4,328.6L522.3,329.5L522.4,330.0L521.8,331.1L521.9,333.3L521.1,336.6L523.0,343.6L520.6,345.1L519.7,346.7L519.7,348.4L518.3,349.9L518.3,350.8L517.2,351.8L515.6,352.1L515.1,353.0L514.5,355.5L514.4,356.7L514.6,357.1L515.3,357.3L516.2,360.2L516.9,360.5L517.8,362.1L517.2,363.9L517.9,366.5L517.4,369.4L516.6,370.2L514.8,371.3L514.0,374.4L514.0,376.2L517.8,380.9L516.9,381.2L515.0,380.9L514.7,382.7L517.7,386.6L518.8,388.9L524.1,391.6L525.2,391.8L526.6,391.5L527.4,392.2L520.7,395.6L517.9,396.7L515.6,399.0L515.0,400.6L515.4,401.7L514.8,402.9L514.5,402.9L513.2,402.3L512.9,400.8L512.1,400.1L511.3,402.0L512.2,402.9L510.2,404.2L508.6,404.8L507.7,406.1L506.1,406.6L505.6,406.3L504.7,406.4L503.7,407.1L503.0,408.4L502.5,411.9L502.6,412.9L501.6,413.0L500.2,412.6L498.5,413.6L498.0,415.4L498.5,417.0L497.7,417.2L494.7,417.1L490.7,413.9L490.5,412.7L485.3,411.1L483.4,411.4L482.2,414.1L479.5,416.8L478.9,417.9L480.1,419.7L481.5,420.6L481.7,424.5L482.2,425.8L481.4,429.4L481.4,430.1L481.9,430.9L481.3,433.9L479.8,437.5L479.3,439.9L479.5,444.1L480.1,445.1L481.2,445.8L482.9,445.6L485.8,446.6L488.5,450.4L492.7,453.6L494.6,455.9L493.2,456.3L490.7,457.7L489.6,459.3L489.6,460.0Z"/>
<path d="M498.6,460.0L497.9,458.4L494.6,455.9L493.4,454.2L492.0,452.9L488.5,450.4L485.8,446.6L482.9,445.6L481.2,445.8L480.2,445.3L479.6,444.3L479.3,439.9L479.8,437.5L481.3,433.9L481.9,430.9L481.4,430.1L481.4,429.4L482.2,425.8L481.7,424.5L481.5,420.6L480.1,419.7L478.9,417.9L479.5,416.8L482.2,414.1L483.4,411.4L485.3,411.1L490.5,412.7L490.7,413.9L494.7,417.1L497.7,417.2L498.5,417.0L498.0,415.4L498.5,413.6L500.2,412.6L501.6,413.0L502.6,412.9L502.5,411.9L503.0,408.4L503.7,407.1L504.7,406.4L505.6,406.3L506.1,406.6L507.7,406.1L508.6,404.8L510.2,404.2L512.2,402.9L511.3,402.0L512.1,400.1L512.9,400.8L513.2,402.3L514.5,402.9L514.8,402.9L515.4,401.7L515.0,400.6L515.6,399.0L517.9,396.7L520.7,395.6L527.4,392.2L526.6,391.5L525.2,391.8L524.1,391.6L518.8,388.9L517.7,386.6L514.7,382.7L515.0,380.9L516.9,381.2L517.8,380.9L514.0,376.2L514.0,374.4L514.8,371.3L516.6,370.2L517.4,369.4L517.9,366.5L517.2,363.9L517.8,362.1L516.9,360.5L516.2,360.2L515.3,357.3L514.6,357.1L514.4,356.7L514.5,355.5L515.1,353.0L515.6,352.1L517.2,351.8L518.3,350.8L518.3,349.9L519.7,348.4L519.7,346.7L520.6,345.1L523.0,343.6L521.1,336.6L521.9,333.3L521.8,331.1L522.4,330.0L528.9,331.2L536.7,332.0L542.7,332.2L555.6,331.8L560.0,332.3L560.0,460.0Z"/>
</g>
<use href="#region-boundary" fill="#c8ddda"/>
<g clip-path="url(#region-clip)" fill="none" stroke="#97b6b2" stroke-width="1" stroke-linejoin="round">
<path d="M266.9,398.3L265.1,396.9L263.9,393.9L263.2,393.0L262.2,389.8L260.7,389.4L259.1,389.7L257.6,385.7L256.3,384.8L255.6,385.7L253.7,386.7L248.8,385.9L247.9,385.2L247.8,384.7L246.3,384.0L242.9,383.7L241.8,383.2L240.1,380.0L239.3,379.4L234.6,382.6L232.4,381.5L229.7,380.9L228.6,380.1L227.5,378.4L225.9,377.4L225.9,374.1L224.4,371.8L222.1,370.0L221.6,368.6L221.7,366.6L221.3,366.9L219.0,366.9L217.0,369.8L216.6,369.9L213.8,368.7L211.4,365.0L209.9,364.2L207.1,363.0L204.5,363.1L202.1,365.2L202.0,365.5L202.7,366.3L203.2,368.5L200.7,371.2L199.3,372.1L196.9,372.6L196.0,373.8L194.4,375.0L191.1,375.9L189.0,379.1L188.0,379.4L185.8,377.3L184.5,377.0L183.6,377.3L182.4,377.0L179.9,375.4L177.1,374.0L177.3,372.0L175.1,369.5L174.6,367.0L173.8,365.8L169.0,365.3L166.2,364.4L165.1,363.6L162.8,360.0L158.4,358.3L155.0,356.3L152.8,355.5L150.6,356.5L149.5,360.6L148.6,361.3L147.2,361.4L144.3,356.8L144.6,354.6L144.1,349.7L144.4,348.1L142.6,346.4L143.8,344.0L145.7,341.7L147.7,337.4L146.7,334.2L144.1,331.4L143.7,330.5L142.1,330.2L141.7,331.0L140.9,331.5L139.7,331.2L138.3,330.3L137.3,327.9L135.1,325.1L131.8,322.4L130.5,322.0L129.6,322.0L129.2,323.7L127.3,323.3L123.5,319.8L122.6,318.4L121.7,318.0L119.8,317.7L117.6,317.0L116.0,315.5L115.5,314.6L114.3,313.6L111.7,312.5L109.1,312.9L108.5,312.8L105.4,310.9L102.2,309.5L97.3,305.5L95.4,304.4L90.8,302.9L88.4,301.4L87.0,301.4L86.6,302.6L86.5,303.3L87.5,305.7L87.5,306.6L82.6,306.2L77.6,304.2L76.5,302.1L75.9,298.7L71.6,294.5L71.8,292.8L71.5,290.8L70.6,289.6L70.0,287.6L70.1,286.2L71.5,280.6L72.8,278.5L72.9,276.2L72.5,275.7L72.5,273.8L74.3,275.1L78.2,273.6L81.6,271.0L82.4,268.9L84.3,267.5L84.5,265.8L85.9,262.7L85.9,261.0L84.5,259.1L84.5,257.7L89.3,258.3L91.5,258.1L101.5,264.4L102.2,265.5L104.0,264.8L105.1,263.2L107.7,263.5L108.5,264.9L109.9,266.2L111.3,267.0L113.6,267.7L116.3,270.8L116.6,271.8L119.1,272.3L123.5,269.3L125.3,269.4L126.8,270.3L131.1,269.1L132.1,266.6L133.7,264.7L134.1,264.6L134.7,265.0L136.0,264.4L135.6,263.4L134.9,262.6L135.8,261.8L137.1,261.1L139.6,261.5L141.5,260.9L141.7,260.8L139.0,258.0L140.1,258.3L142.8,257.8L144.4,257.1L147.1,257.0L145.9,255.1L143.0,254.0L141.1,253.8L138.9,251.8L136.8,249.0L137.1,248.2L138.3,246.9L137.6,244.9L135.8,244.5L135.0,243.3L134.3,242.8L130.0,242.5L128.4,242.0L126.3,240.7L125.0,239.3L124.6,238.8L123.6,235.5L120.7,232.7L117.9,231.2L117.7,231.5L116.0,228.9L114.8,225.8L114.3,216.9L113.1,216.9L108.2,213.5L107.6,213.5L106.8,213.2L105.5,212.0L105.2,211.3L102.6,208.4L99.9,207.0L98.7,206.0L102.1,202.3L106.4,199.1L107.4,196.7L106.5,194.7L106.3,193.6L103.6,191.8L102.0,191.4L99.1,189.5L96.5,185.5L95.6,184.6L93.8,182.8L90.8,180.9L95.8,175.5L98.6,175.4L98.8,175.6L104.0,170.7L102.7,169.7L102.5,169.0L103.9,161.0L101.6,160.2L99.6,156.4L99.2,153.1L101.5,153.0L103.0,151.5L103.5,149.4L103.2,145.1L107.0,142.1L106.8,139.3L112.7,140.8L115.2,141.9L116.3,143.0L118.5,143.6L120.0,141.2L122.1,140.6L125.6,140.6L126.7,141.0L128.1,144.2L128.6,144.5L130.1,143.8L132.5,143.2L134.6,141.9L137.8,142.2L139.5,142.7L145.8,141.3L147.5,141.2L148.0,139.8L150.1,138.2L150.6,141.4L152.2,143.7L151.8,146.8L153.3,153.4L156.9,159.2L158.7,160.5L161.7,163.6L162.5,165.7L166.7,168.8L167.5,169.6L169.2,169.8L173.2,171.9L175.5,172.7L178.2,172.7L178.5,175.2L178.1,179.2L182.6,179.9L183.8,179.7L185.0,178.7L185.1,178.0L185.9,176.7L186.7,176.7L187.6,177.7L188.9,178.0L191.8,178.4L193.4,178.2L199.1,179.1L201.6,179.9L203.5,181.1L208.0,182.5L210.3,182.4L211.8,181.4L215.2,181.0L220.3,181.3L222.5,182.6L226.3,184.1L228.0,185.4L228.9,187.6L230.3,188.3L231.7,189.6L232.4,191.0L232.4,192.5L233.9,195.4L236.1,198.0L238.6,199.8L238.7,201.6L239.5,202.8L236.6,203.5L238.3,209.1L237.9,211.5L242.0,217.8L242.3,222.6L242.8,224.4L244.9,225.7L246.2,227.9L245.4,231.6L245.8,235.1L244.9,235.4L243.8,237.9L243.3,238.1L242.7,237.8L242.2,236.7L241.2,236.0L238.9,237.5L237.6,240.5L236.6,240.6L237.7,241.7L238.4,243.8L238.3,246.1L237.7,246.8L237.5,250.7L239.0,252.3L238.7,253.6L238.2,253.6L236.9,254.4L236.4,255.5L236.3,258.5L236.6,260.5L234.5,264.6L237.1,266.0L243.4,267.6L244.3,267.2L244.2,266.2L245.6,267.6L246.5,267.8L248.0,266.9L248.4,266.0L248.5,264.0L249.4,263.0L252.0,262.4L252.6,262.6L255.7,262.2L257.9,261.3L259.2,262.9L259.8,264.0L259.8,264.7L259.3,265.2L259.1,266.2L260.6,267.7L265.1,271.1L267.5,272.2L270.7,272.7L271.3,273.0L272.4,276.0L274.5,279.4L275.4,280.6L278.0,282.9L279.5,286.6L280.7,287.9L281.4,287.9L286.0,285.1L293.3,284.7L297.2,283.8L298.9,284.7L300.8,287.4L300.6,290.5L301.7,295.1L299.3,296.4L298.8,297.2L298.8,299.5L297.9,302.0L296.9,303.6L296.6,306.3L296.8,308.4L298.1,308.9L298.6,309.6L298.4,310.8L298.8,313.8L299.5,315.3L300.3,324.5L298.1,325.2L296.9,326.3L299.7,331.2L300.8,336.3L302.1,339.5L306.2,340.2L309.0,341.3L312.0,339.1L313.8,338.6L315.4,337.3L318.6,336.6L324.6,340.3L328.5,344.2L327.5,345.2L327.3,345.8L327.6,345.9L327.1,347.9L326.1,349.8L325.0,350.8L321.4,352.4L321.1,353.0L321.6,354.0L321.1,354.4L319.9,354.3L319.4,353.8L317.5,353.3L314.9,354.1L314.4,354.8L313.8,354.9L312.7,355.6L310.9,358.4L311.5,359.4L312.4,361.6L313.3,361.8L314.6,364.2L316.1,372.4L317.2,373.8L319.5,373.6L321.1,374.0L322.4,375.6L322.5,376.3L321.0,378.2L320.9,380.8L320.1,381.1L317.6,380.8L317.1,380.2L316.9,379.3L316.9,376.6L316.6,376.1L316.1,376.1L314.4,377.9L313.8,379.3L314.1,380.5L313.5,381.2L309.1,382.0L307.2,382.2L305.2,382.0L304.1,384.7L305.3,385.6L305.8,387.4L304.4,390.6L302.5,392.7L302.3,392.8L301.9,390.1L299.8,385.6L299.6,384.0L297.6,383.7L296.0,384.2L294.3,384.2L293.6,385.9L290.8,389.4L290.8,394.4L288.4,394.5L286.3,394.3L284.6,395.7L284.4,397.3L283.5,400.0L278.4,396.8L275.8,396.4L270.0,396.2L268.4,396.8L267.3,398.1L266.9,398.3Z"/>
<path d="M265.0,66.5L266.7,73.4L268.9,80.5L271.8,87.7L274.4,93.1L277.8,102.5L280.0,107.1L285.0,116.0L287.9,120.1L292.5,130.1L296.5,136.7L299.5,141.0L302.8,146.4L307.3,152.2L310.7,155.8L309.5,155.9L307.1,156.8L305.2,156.0L300.5,155.1L299.0,153.6L298.3,152.3L297.6,152.1L295.2,152.6L293.7,151.8L292.6,154.8L291.7,155.8L288.7,154.6L286.2,154.7L279.3,152.9L278.6,153.1L277.3,152.6L273.7,155.2L272.3,155.3L270.0,154.7L269.2,156.2L269.7,159.3L270.7,161.8L270.5,163.1L267.7,162.5L263.9,160.4L262.8,160.7L262.1,162.3L260.9,162.9L256.6,161.2L254.8,162.0L254.1,163.5L254.2,166.4L254.7,167.8L249.5,168.2L244.8,165.3L243.8,166.5L240.9,167.1L239.0,166.7L238.3,169.5L238.0,172.2L235.0,175.6L234.9,176.2L235.2,177.6L234.6,178.7L230.8,182.7L229.3,187.8L228.6,187.2L228.0,185.4L226.3,184.1L222.5,182.6L220.3,181.3L215.2,181.0L211.8,181.4L210.3,182.4L208.0,182.5L203.5,181.1L201.6,179.9L199.1,179.1L193.4,178.2L191.8,178.4L188.9,178.0L187.6,177.7L186.9,176.7L186.1,176.6L185.1,178.0L185.0,178.7L183.8,179.7L182.6,179.9L178.3,179.3L178.0,178.9L178.5,175.2L178.2,172.7L175.5,172.7L173.2,171.9L169.2,169.8L167.5,169.6L166.7,168.8L162.5,165.7L161.7,163.6L158.7,160.5L156.9,159.2L153.4,153.6L151.8,146.8L152.2,143.7L150.6,141.4L150.1,138.2L149.4,137.6L149.0,135.0L149.3,133.2L149.8,132.6L150.4,130.5L150.2,129.4L152.5,127.5L153.3,125.2L153.1,123.3L147.6,121.3L145.5,121.4L143.6,119.5L141.9,116.8L140.4,115.8L140.9,111.8L142.6,107.9L143.7,108.7L145.0,108.6L147.1,109.2L149.2,110.4L150.9,109.9L153.1,107.8L157.2,104.8L158.1,105.7L158.6,106.6L159.3,107.0L160.0,106.1L160.0,105.3L159.5,104.4L159.5,101.6L160.1,99.3L161.5,97.4L162.5,96.8L164.7,96.6L168.9,97.3L171.3,96.0L172.3,94.6L173.6,92.0L173.2,88.3L173.2,86.0L173.6,84.9L174.2,84.5L176.3,80.7L176.8,80.1L179.0,78.8L179.7,75.5L179.8,73.7L180.2,72.7L182.0,72.7L182.4,73.0L184.5,76.3L188.6,77.4L191.7,75.5L193.0,75.8L194.1,75.8L196.9,74.6L198.5,73.0L199.3,72.8L200.1,73.2L199.9,74.0L200.2,75.6L201.6,76.6L202.9,76.7L207.6,75.5L208.2,74.6L210.4,73.2L215.3,71.0L215.7,69.5L217.7,65.0L216.7,64.3L216.8,63.2L221.1,61.4L224.3,61.3L227.6,60.5L231.2,60.3L236.9,58.0L239.3,56.4L239.5,55.7L240.2,55.0L241.5,54.4L245.1,53.4L248.8,53.0L252.6,51.7L253.9,50.9L256.1,50.9L259.8,50.0L261.6,50.1L262.6,50.7L262.9,54.6L265.0,66.5Z"/>
<path d="M246.2,228.0L244.9,225.7L242.8,224.4L242.3,222.6L242.0,217.8L237.9,211.5L238.3,209.1L236.6,203.5L239.5,202.8L238.7,201.6L238.6,199.8L236.1,198.0L234.6,196.3L232.4,192.5L232.4,191.0L231.7,189.6L230.5,188.4L229.3,187.8L230.8,182.7L234.6,178.7L235.2,177.6L234.9,176.2L235.0,175.6L238.0,172.2L238.3,169.5L239.0,166.7L240.9,167.1L243.8,166.5L244.8,165.3L249.5,168.2L254.6,167.8L254.1,163.5L254.8,162.0L256.6,161.2L260.9,162.9L262.1,162.3L262.8,160.7L263.9,160.4L267.7,162.5L270.5,163.1L270.7,161.8L269.7,159.3L269.2,156.2L270.0,154.7L272.3,155.3L273.7,155.2L277.3,152.6L278.6,153.1L279.3,152.9L286.2,154.7L288.7,154.6L291.7,155.8L292.6,154.8L293.7,151.8L295.2,152.6L297.6,152.1L298.3,152.3L299.0,153.6L300.5,155.1L305.2,156.0L307.1,156.8L309.5,155.9L310.7,155.8L311.5,157.5L312.3,157.2L319.8,167.1L323.9,171.3L326.2,173.2L327.3,173.8L328.4,173.7L328.2,173.9L328.3,174.4L330.3,177.1L333.7,180.6L331.6,183.0L331.9,185.7L331.0,185.9L328.9,187.9L328.3,189.1L326.7,188.0L327.1,186.9L327.2,185.7L325.4,185.6L324.0,186.3L321.9,185.3L321.3,183.9L320.5,183.8L318.8,185.7L316.1,183.0L315.4,183.6L314.6,184.3L314.9,185.0L315.4,185.1L315.5,186.1L312.9,188.8L313.5,188.7L313.4,189.4L312.8,190.0L312.6,191.3L313.1,195.3L312.8,195.6L308.5,196.9L307.8,197.6L307.1,199.1L306.7,202.7L305.4,203.5L304.6,204.5L304.6,205.2L305.0,205.7L306.2,205.9L306.6,207.4L306.6,208.4L305.4,209.3L304.5,211.0L305.0,212.4L303.2,213.3L299.4,212.5L297.2,213.3L295.6,215.3L295.7,216.6L296.1,217.3L296.4,217.6L297.5,217.7L297.7,218.9L299.8,221.6L303.3,223.8L303.2,225.0L301.7,226.5L297.6,228.7L299.2,228.8L302.1,229.5L302.4,229.9L303.7,229.9L303.9,233.2L302.8,233.9L302.0,234.8L302.6,238.5L303.2,239.6L307.9,244.3L306.8,244.0L305.4,244.3L304.5,245.0L304.0,247.2L303.3,248.0L302.1,248.7L301.6,248.6L299.8,249.4L299.5,249.8L299.4,251.1L301.2,252.9L302.1,254.0L302.2,254.6L301.0,254.5L300.0,255.4L300.0,256.7L300.5,257.3L302.2,258.0L304.3,260.0L307.0,263.2L304.1,265.6L302.9,267.8L302.8,269.2L304.1,274.4L304.0,278.1L302.2,280.5L301.3,280.2L298.7,280.5L298.4,282.0L297.2,283.0L297.6,284.0L296.9,283.8L293.3,284.7L290.6,285.0L289.0,284.8L286.0,285.1L281.4,287.9L280.7,287.9L279.5,286.6L278.0,282.9L275.4,280.6L274.5,279.4L272.4,276.0L271.3,273.0L270.7,272.7L267.5,272.2L265.1,271.1L260.6,267.7L259.1,266.2L259.3,265.2L259.8,264.7L259.8,264.0L259.2,262.9L257.9,261.3L255.7,262.2L252.6,262.6L252.0,262.4L249.4,263.0L248.5,264.0L248.4,266.0L248.0,266.9L246.5,267.8L245.6,267.6L244.2,266.2L244.3,267.2L243.4,267.6L237.1,266.0L234.5,264.6L236.6,260.5L236.3,258.5L236.4,255.5L236.9,254.4L238.2,253.6L238.7,253.6L239.0,252.3L237.5,250.7L237.7,246.8L238.3,246.1L238.4,243.8L237.7,241.7L236.6,240.6L237.6,240.5L238.9,237.5L241.2,236.0L242.2,236.7L242.7,237.8L243.3,238.1L243.8,237.9L244.9,235.4L245.8,235.1L245.4,231.6L246.2,228.0Z"/>
<path d="M348.6,338.6L346.2,339.6L344.4,339.5L343.6,337.9L341.6,336.8L340.2,335.0L340.1,334.5L338.7,335.2L336.2,338.8L335.2,339.5L334.0,339.8L331.7,342.8L330.2,343.7L328.5,344.2L324.6,340.3L318.6,336.6L315.4,337.3L313.8,338.6L312.0,339.1L309.0,341.3L306.2,340.2L302.1,339.5L300.8,336.3L299.7,331.2L296.9,326.3L298.1,325.2L300.2,324.7L300.4,322.6L299.5,315.3L298.8,313.8L298.4,310.8L298.6,309.6L298.1,308.9L296.8,308.4L296.6,306.3L296.9,303.6L297.9,302.0L298.8,299.5L298.8,297.1L299.3,296.4L301.7,295.1L300.6,290.5L300.8,287.4L298.9,284.7L297.6,284.0L297.2,283.0L298.4,282.0L298.7,280.5L301.3,280.2L302.2,280.5L304.0,278.1L304.1,274.4L302.8,269.2L302.9,267.8L304.1,265.6L307.0,263.2L304.3,260.0L302.2,258.0L300.5,257.3L300.0,256.7L300.0,255.4L301.0,254.5L302.2,254.6L302.1,254.0L301.2,252.9L299.4,251.1L299.4,250.4L299.8,249.4L301.6,248.6L302.1,248.7L303.3,248.0L304.0,247.2L304.5,245.0L305.4,244.3L306.8,244.0L307.9,244.3L303.2,239.6L302.6,238.5L302.0,234.8L302.8,233.9L303.9,233.2L303.7,229.9L302.4,229.9L302.1,229.5L299.2,228.8L297.6,228.7L301.7,226.5L303.2,225.0L303.3,223.8L299.8,221.6L297.7,218.9L297.5,217.7L296.4,217.6L296.1,217.3L295.7,216.6L295.6,215.3L297.2,213.3L299.4,212.5L303.2,213.3L305.0,212.4L304.5,211.0L305.4,209.3L306.6,208.4L306.6,207.4L306.2,205.9L305.0,205.7L304.6,205.2L304.6,204.5L305.4,203.5L306.7,202.7L307.1,199.1L307.8,197.6L308.5,196.9L312.8,195.6L313.1,195.3L312.6,191.3L312.8,190.0L313.4,189.4L313.5,188.7L312.9,188.8L315.5,186.1L315.4,185.1L314.9,185.0L314.6,184.3L316.1,183.0L318.8,185.7L320.5,183.8L321.3,183.9L321.9,185.3L324.0,186.3L325.4,185.6L327.2,185.7L327.1,186.9L326.7,188.0L328.3,189.1L328.9,187.9L331.0,185.9L331.9,185.7L331.6,183.0L333.7,180.6L341.3,187.1L346.8,191.4L359.1,199.8L360.7,200.3L362.9,201.5L363.5,202.0L364.5,203.9L365.4,204.8L367.3,205.9L369.3,206.4L369.9,207.7L367.3,206.0L367.0,206.6L367.0,208.7L367.4,209.4L367.9,209.2L370.0,213.4L370.4,215.0L373.6,219.0L376.7,221.8L382.9,226.7L386.1,230.1L386.7,231.7L386.5,233.9L388.3,236.5L392.7,239.6L395.2,240.8L396.9,242.5L399.7,244.5L412.0,251.6L416.7,253.5L417.6,253.7L428.0,258.4L430.8,258.9L431.4,257.9L431.6,258.0L432.6,259.9L433.0,263.2L433.0,264.9L432.6,266.0L432.9,269.8L433.7,271.4L433.7,273.1L432.7,277.9L432.9,278.7L434.7,281.1L438.3,284.6L439.9,285.7L445.8,288.7L444.4,290.7L442.2,296.1L442.5,296.9L444.8,297.6L446.5,298.8L446.6,299.4L446.0,300.4L443.0,303.6L440.0,305.0L438.6,306.6L435.4,307.4L434.1,308.8L429.5,315.0L429.0,316.3L426.8,318.3L424.3,322.0L422.2,324.2L421.5,325.8L421.9,328.2L421.2,332.9L419.3,334.5L418.7,335.6L416.4,337.5L412.4,339.3L410.6,340.7L410.0,343.3L407.3,348.2L407.1,351.6L405.4,352.9L404.3,354.2L402.6,358.4L400.7,361.1L399.9,360.7L399.2,360.7L396.8,361.9L395.4,363.8L394.5,365.6L393.3,366.3L392.8,366.1L393.2,366.8L393.4,368.5L392.6,369.6L385.9,374.2L385.3,375.8L383.8,377.5L383.1,377.8L379.9,376.8L377.2,377.1L376.5,376.8L376.5,376.3L377.3,374.3L378.6,372.8L376.5,367.5L375.6,360.1L374.6,355.4L373.9,354.4L372.0,354.4L369.3,350.4L364.3,346.3L363.5,346.1L362.3,347.0L360.3,347.4L359.7,344.8L359.9,343.4L357.6,344.1L356.6,344.9L357.2,345.8L357.3,346.5L356.0,348.9L352.7,348.4L352.7,346.6L349.4,341.7L348.6,338.6Z"/>
</g>
<use href="#region-boundary" fill="none" stroke="#337b80" stroke-width="2" stroke-linejoin="round"/>
<text x="153.6" y="39.3" text-anchor="middle" fill="#52665e" font-size="18">Marche</text>
<text x="43.9" y="82.1" text-anchor="middle" fill="#52665e" font-size="18">Umbria</text>
<text x="97.7" y="328.4" text-anchor="middle" fill="#52665e" font-size="18">Lazio</text>
<text x="407.9" y="392.8" text-anchor="middle" fill="#52665e" font-size="18">Molise</text>
<text x="205" y="205" fill="#355c58" font-size="23" letter-spacing="2" text-anchor="middle">ABRUZZO</text>
<text x="452" y="95" fill="#496d78" font-size="18" text-anchor="middle"><tspan x="452">Mare</tspan><tspan x="452" dy="24">Adriatico</tspan></text>
<circle cx="263.6" cy="294.7" r="10" fill="#176373" stroke="#fff" stroke-width="3"/>
<circle cx="263.6" cy="294.7" r="3" fill="#fff"/>
<text x="281.6" y="301.7" fill="#172d35" font-size="24" font-weight="600" stroke="#eef5f3" stroke-width="4" stroke-linejoin="round" paint-order="stroke">Sulmona</text>
<circle cx="322.8" cy="176.7" r="10" fill="#176373" stroke="#fff" stroke-width="3"/>
<circle cx="322.8" cy="176.7" r="3" fill="#fff"/>
<text x="340.8" y="183.7" fill="#172d35" font-size="24" font-weight="600" stroke="#eef5f3" stroke-width="4" stroke-linejoin="round" paint-order="stroke">Pescara</text>
<path d="M28,415v6h103.7v-6" fill="none" stroke="#49655f" stroke-width="1.5"/>
<text x="28" y="442" fill="#49655f" font-size="16">40 km</text>
</svg>
